<?xml version="1.0" encoding="utf-8"?>
<!-- Generator: Adobe Illustrator 25.0.1, SVG Export Plug-In . SVG Version: 6.00 Build 0)  -->
<svg version="1.1" id="Layer_1" xmlns="http://www.w3.org/2000/svg" xmlns:xlink="http://www.w3.org/1999/xlink" x="0px" y="0px"
	 viewBox="0 0 595.3 283.5" style="enable-background:new 0 0 595.3 283.5;" xml:space="preserve">
<style type="text/css">
	.st0{fill:#FFFFFF;}
</style>
<g>
	<g>
		<path class="st0" d="M346.8,241.8v-65c0-15.9,9.2-22.3,21.4-22.3h0.8c12.2,0,21.6,6.4,21.6,23.2v14.2h-12.4v-15.1
			c0-8.3-4.4-11.5-9.5-11.5h-0.2c-4.9,0-9.3,3.2-9.3,11.5v65c0,8.4,4.4,11.3,9.2,11.3h0.3c5,0,9.5-2.9,9.5-11.3v-18.8h12.4v18.8
			c0,17-9.3,23.2-21.6,23.2h-0.8C356,265,346.8,258.7,346.8,241.8z"/>
		<path class="st0" d="M401.7,155.8h12.1v95.4h20.3v12.2h-32.4V155.8z"/>
		<path class="st0" d="M443.3,155.8h35.3v11.9h-23.2v33.5h19.6v11.5h-19.6v38.7h23.2v12.1h-35.5L443.3,155.8z"/>
		<path class="st0" d="M516.5,241.4h-17l-2.3,22H485l13.1-107.6h19.3l13.8,107.6h-12.1L516.5,241.4z M515.3,229.8l-7.2-61.9h-0.8
			l-6.6,61.9H515.3z"/>
		<path class="st0" d="M582.9,155.8v107.6h-12.2l-18.3-64.5v64.5h-12.2V155.8h12.2l18.3,70.6v-70.6H582.9z"/>
	</g>
	<g>
		<path class="st0" d="M54.9,221.4v21.4c0,14.1-8.7,19.1-20.9,19.1H12.7l0.2-107.6h21.1c12.2,0,20.2,6.1,20.2,20v16.1
			c0,6.3-2.4,12.2-6.9,15.3C52.6,208.4,54.9,214.5,54.9,221.4z M24.8,200.2h8.4c4.6,0,9-2.9,9-11.2v-12.8c0-8.1-4.4-10.5-8.9-10.5
			h-8.6V200.2z M42.2,223.7c0-8.1-4-11.2-8.4-11.2h-9v37.9h8.4c4.6,0,9-2.3,9-10.5V223.7z"/>
		<path class="st0" d="M65,240.2v-65.1c0-16.7,9.3-22.2,21.7-22.2h0.8c12.4,0,21.7,5.7,21.7,22.3v65c0,17-9.3,23.2-21.7,23.2h-0.8
			C74.3,263.5,65,257.2,65,240.2z M87.1,251.5c4.3,0,8.7-2,8.7-10.4v-66.7c0-8.4-4.4-10.7-8.7-10.7H87c-4.3,0-8.7,2.3-8.7,10.7v66.7
			c0,8.4,4.4,10.4,8.6,10.4H87.1z"/>
		<path class="st0" d="M208.6,154.3h12.1v43l0.8,0.6l15.6-43.6h13.3l-19,51.1l19.1,56.6h-12.1L224,220.8l-3.5,10.1l0.2,31h-12.1
			V154.3z"/>
		<g>
			<path class="st0" d="M199.4,205.4c0,5.8-0.1,11.6,0,17.4c0.2,17.6-12.3,34.3-30.5,38c-12.8,2.6-25,0.9-35.5-7.7
				c-8.7-7.1-13.8-16.4-14.4-27.8c-0.6-12.5-0.4-25-0.2-37.5c0.3-17.3,11-31.5,27-36.8c0.2-0.1,0.4-0.1,0.7-0.2
				c1.6-0.5,1.6-0.4,1.3,1.1c-0.3,1.2-0.4,2.4-0.4,3.6c0,9.2,0,18.3,0,27.5c0,4.3,1.5,8,4.6,11c1.1,1.1,2.3,2,3.7,2.4
				c1.2,0.4,1.5,1.1,1.5,2.2c0,6.2,0,12.3,0,18.5c0,0.5,0,1,0.1,1.5c0.2,1,0.8,1.7,1.9,1.7c1.1,0,1.8-0.6,2-1.7
				c0.1-0.5,0.1-1,0.1-1.5c0-6.2,0-12.4,0-18.6c0-0.7-0.1-1.4,0.8-1.8c6.3-2.5,8.7-7.6,8.9-13.9c0.2-6.5,0-13.1,0-19.6
				c0-2.7,0-5.4,0-8.1c0-1-0.2-2-0.4-3c-0.3-1.6-0.3-1.7,1.4-1.2c4.6,1.4,8.9,3.5,12.6,6.6c9.8,7.9,14.9,18.2,14.9,30.9
				C199.4,194,199.4,199.7,199.4,205.4z"/>
			<path class="st0" d="M159.1,150.8c-2.8,0-2.9,0-3.3-2.8c-0.5-3.6-2.6-5.7-6.1-6.5c-2.4-0.5-4.9-0.7-7.3-0.7
				c-4.5-0.1-9.1,0.2-13.6-0.6c-4.4-0.8-8.4-2.4-10.8-6.4c-1.5-2.5-2-5.2-2.1-8.1c0-0.9,0.4-1.2,1.3-1.2c1.2,0,2.5,0,3.7,0
				c0.8,0,1.3,0.2,1.3,1.2c0,0.6,0.1,1.3,0.2,1.9c0.4,2.8,1.9,4.7,4.7,5.7c2,0.7,4.1,0.9,6.3,1c5,0.2,10-0.1,15,0.6
				c4.1,0.6,7.9,1.7,10.7,5c2.4,2.8,3.1,6.1,3.3,9.7c0.1,0.9-0.4,1.4-1.3,1.3C160.4,150.7,159.8,150.8,159.1,150.8z"/>
			<path class="st0" d="M152.9,169.2c0.2-3.5,0.6-7,2.8-10c2-2.8,4.7-2.9,6.9-0.2c2,2.5,2.5,5.4,2.8,8.4c0.3,3.6-0.2,7-1.7,10.3
				c-0.2,0.5-0.5,1-0.8,1.4c-2.1,3.1-5.2,3.1-7.3,0C153.5,176.2,153,172.7,152.9,169.2z"/>
		</g>
	</g>
	<path class="st0" d="M0,269.1c21.6-0.1,211.2-0.2,232.8-0.2c6.9,0,13.7-0.5,20.4-2.4c1.8-0.5,3.5-1.2,5.2-2
		c2.9-1.2,3.4-2.8,0.8-4.9c-0.8-0.6-1.4-1.4-2-2.2c-6-7.6-5.9-9.2,2.1-14.6c17.2-11.5,30.8-26.3,41.3-43.9c1.9-3.3,3.8-6.2,4.2-10.5
		c0.8-7.5,4.3-14.2,12.3-17.2c2.3-0.9,2.4-3,3.1-4.8c12.1-36,24.2-71.9,36.3-107.9c0.7-2.2,1.4-4.3,2.2-6.5c1.8-5.3,5-7,9.8-5.5
		c4.7,1.5,6.3,4.9,4.5,10.2c-6.6,19.7-13.4,39.5-20,59.2c-6.2,18.4-12.4,36.8-18.6,55.2c-0.7,2.2-0.8,4,0.7,6
		c3.9,5.1,3.8,10.7,2.1,16.7c-4.8,16.9-6.3,34.2-3.8,51.6c1.1,7.9,5.2,14.7,9.2,21.5c0.8,1.4,2,2,3.5,2c1.7,0,3.4,0,5.1,0
		c159.5,0,76.3,0,235.8,0c2,0,4,0,6,0.1c1.5,0.1,2.4,0.8,2.4,2.4c0.1,1.8-0.8,2.6-2.5,2.8c-1.1,0.1-2.3,0.1-3.4,0.1
		c-161.8,0-80.9,0-242.6,0.1c-4.2,0-6.6-1.5-8.9-5c-10.8-16.3-12.2-34.3-10.1-53c0.6-5.2,1.1-10.5,1.6-15.7c0.9-2.8,1.7-5.7,2.8-8.5
		c2-4.9,1.3-9.3-2.2-13.1c-2-2.2-2.3-4.2-1.4-7c10.5-30.8,20.8-61.6,31.2-92.4c2.7-8.1,5.5-16.2,8.2-24.3c0.6-1.6,0.7-3.2-1.3-3.9
		c-2.2-0.8-2.7,0.9-3.2,2.4c-0.8,2.3-1.6,4.6-2.4,6.9c-12.3,36.5-24.5,73-36.8,109.4c-1,2.9-2,5.3-5.6,6.2c-4.9,1.1-6.8,5.2-8.1,9.6
		c-0.6,2,0.3,2.9,2.1,3.4c3.8,1.1,7.6,2.4,11.4,3.6c3.7,1.2,5.8,3.5,5.2,7.7c-2.4,2.6-5.1,3.3-8.5,2.1c-3.6-1.3-7.4-2.2-11-3.5
		c-2.1-0.7-3.4-0.2-4.6,1.8c-11.3,18.9-25.7,34.8-44.3,46.7c-2.4,1.5-2.8,3-0.9,5.1c1.3,1.5,2.6,3,4,4.4c3.7,3.8,3.6,7.2-0.8,10.3
		c-6.2,4.5-13.4,5.5-20.7,6c-24.8,1.6-217.7,0.5-242.5,0.7C0,272.5,0,270.8,0,269.1z"/>
	<path class="st0" d="M314.2,267.8c-1.4,2.9-2.1,5.4-1.4,8.2c1,4-0.3,5.3-4.4,4.3c-7.9-2-16.6-2.8-20.2-12.6
		c-3.3,6.7-3.7,6.8-9.8,3.2c-2.1-1.2-4.2-2.5-5.9-4.1c-4.3-3.9-4.7-11.1-1.1-15.6c0.9-1.1,1.8-1.9,3.3-1.1c1.4,0.7,1.6,1.9,1.1,3.3
		c-0.4,0.9-0.8,1.8-1,2.8c-1.2,4.7,1.4,9,6,10.2c1.6,0.4,2-0.6,2.6-1.5c1.3-2,2.5-4.1,3.8-6.2c0.6-1,1.5-1.8,2.8-1.6
		c1.5,0.2,2.1,1.4,2.3,2.7c0.2,1,0.2,2,0.3,3c0.8,6.9,6.2,11.6,13.2,11.6c1.8,0,1.7-1.1,1.8-2.2c0.5-5.7,4-10.3,6.3-15.3
		c0.6-1.2,1.5-2.1,3-1.8c1.5,0.4,1.9,1.6,2,3c0.3,4,0,8,1.2,11.9c1.7,5.9,4.9,7.5,10.7,4.9c0.1-0.1,0.3-0.1,0.4-0.2
		c2.2-0.6,4.9-4,6.5-0.2c1.4,3.2-2.5,4-4.6,5c-8.6,4.1-14.7,1.5-17.7-7.6C314.9,270.6,314.6,269.4,314.2,267.8z"/>
	<g>
		<path class="st0" d="M231.1,27.6c2.7,1.6,4.7,3.6,5.5,6.5c0.5,1.8,0.4,3.6,0.4,5.4c-0.1,2.2-0.1,4.4-1,6.5
			c-0.3,0.6-0.5,1.2-0.9,1.7c-0.4,0.5-0.7,0.5-1-0.1c-0.5-0.9-0.9-1.9-1.2-2.9c-1.1-3.3-2.1-6.6-2.8-10c-0.3-1.3-0.8-2.5-2.3-2.8
			c-1.3-0.3-2.4,0-3.4,0.9c-0.7,0.7-0.8,1.6-0.7,2.6c0.4,2.9,1.3,5.6,2.1,8.4c0.8,2.4,1.7,4.7,2.7,7c0.3,0.6,0.3,1-0.5,1.3
			c1.4,0.4,1.8,1.6,2.3,2.6c3.5,7,8,13.4,13.3,19.1c4.2,4.4,8.8,8.4,13.9,11.8c4.3,3,8.9,5.5,13.7,7.7c5.6,2.6,11.3,4.5,17.2,6
			c4.3,1.1,8.7,2,13.1,2.7c7.4,1.2,14.9,1.6,22.3,0.9c4-0.4,7.9-1.2,11.8-2.5c0.5-0.2,1-0.3,1.5-0.4c0.9-0.2,1.2,0,0.9,0.9
			c-0.6,1.9-1.2,3.8-1.8,5.7c-2.5,7.6-5,15.3-7.5,22.9c-2.5,7.6-5,15.1-7.5,22.7c-0.2,0.5-0.4,0.9-1.1,1c-6,0.6-12,1-18,1
			c-6.2,0-12.4-0.3-18.5-0.9c-6.2-0.6-12.3-1.6-18.4-2.8c-9.2-1.9-18.2-4.5-26.9-7.9c-3.8-1.5-7.5-3-11.2-4.7
			c-1-0.5-1.4-1.2-1.4-2.2c-0.1-6.7,0-13.5,0-20.2c0.1-8,0.1-16,0.2-24c0.1-7.2,0.1-14.4,0.2-21.6c0.1-5.6,0.2-11.2,0.3-16.7
			c0-0.8-0.4-1-1-1c-1.4-0.2-2.8-0.6-4.1-1.4c-3.1-1.9-4.7-4.7-4.9-8.3c-0.1-2.5,0.1-4.9,0.4-7.3c0.5-3.7,2.7-6,5.9-7.5
			c0.9-0.5,1.9-0.8,3-0.9c0.6-0.1,0.9-0.3,0.9-0.9c0.1-2,0.1-4,0.2-6.1c0-0.5-0.3-0.7-0.7-0.9c-1.1-0.6-2.3-1.2-3.3-2
			c-2-1.7-2.5-4.5-1.2-6.9c1.3-2.5,3.9-3.6,6.5-2.8c2.1,0.6,4,1.6,6,2.4c5.1,2.2,10.3,4.1,15.6,5.8c5.2,1.6,10.4,3.1,15.7,4.4
			c12.2,2.9,24.6,4.6,37,6.7c5,0.8,9.9,1.5,14.9,2.1c6,0.7,12.1,1.1,18.1,1.3c5.7,0.2,11.4,0.2,17.1-0.1c2.7-0.2,5.4-0.4,8.1-0.5
			c2.7-0.1,5.2,1.9,5.6,4.6c0.4,2.7-0.7,5.2-3.5,6.3c-1.1,0.5-2.3,0.6-3.4,0.7c-0.7,0.1-1.1,0.3-1.4,1.1c-2.1,6.5-4.3,13-6.5,19.4
			c-2.2,6.7-4.4,13.3-6.7,20c-0.9,2.7-1.8,5.3-2.6,8c-0.2,0.7-0.6,1.2-1.2,1.6c-3.5,2.2-7.2,3.6-11.2,4.5
			c-6.1,1.4-12.3,1.7-18.5,1.3c-5.6-0.4-11.2-1.5-16.7-2.6c-7.7-1.4-15-4-22-7.3c-9.5-4.4-17.9-10.4-25-18.2
			c-4.4-4.8-8.1-10-11.1-15.9c-1-1.9-1-1.9,0.6-3.4c1.7-1.5,2.4-3.5,2.7-5.7c0.3-2.4,0.5-4.9,0.3-7.3c-0.4-4.9-3.4-7.5-7.9-8.9
			C231.7,27.5,231.5,27.4,231.1,27.6z"/>
		<path class="st0" d="M294.9,20.4c-4.5-0.7-9-1.4-13.4-2.3c-6.6-1.3-13.2-2.8-19.7-4.6c-4.1-1.1-8.2-2.4-12.3-3.8
			c-2.3-0.9-4.7-1.7-6.6-3.4c-0.2-0.2-0.4-0.4-0.6-0.6c-0.7-0.9-0.7-1.4,0.3-2c1.1-0.7,2.4-1.1,3.7-1.2c4.9-0.5,9.8-0.3,14.7-0.1
			c5.8,0.3,11.6,0.9,17.4,1.5c4.6,0.5,9.2,1.2,13.7,2c4.9,0.8,9.7,1.6,14.6,2.5c8.5,1.5,16.9,3.4,25.3,5.8c3.8,1.1,7.6,2.3,11.3,3.7
			c1.7,0.7,3.5,1.4,5,2.5c0.7,0.5,1.6,1,1.4,2.1c-0.1,1.1-1.1,1.3-2,1.6c-2.6,0.8-5.2,0.9-7.9,1c-4.2,0.1-8.3-0.1-12.5-0.4
			c-6-0.4-12-1-18-1.8C304.7,22.1,299.8,21.2,294.9,20.4C294.9,20.4,294.9,20.4,294.9,20.4z"/>
	</g>
</g>
</svg>
