<svg width="22" height="22" viewBox="0 0 22 22" fill="none" xmlns="http://www.w3.org/2000/svg">
<path d="M16.5 16.5C16.8647 16.5 17.2144 16.3551 17.4723 16.0973C17.7301 15.8394 17.875 15.4897 17.875 15.125V11.7672C17.875 11.4026 17.7301 11.0528 17.4723 10.795C17.2144 10.5371 16.8647 10.3923 16.5 10.3923H14.5915C14.5915 9.90963 14.6204 9.42563 14.6767 8.943C14.762 8.4315 14.905 7.97638 15.103 7.579C15.3024 7.18025 15.5581 6.86812 15.8716 6.63987C16.1837 6.38412 16.5811 6.25625 17.0651 6.25625V4.125C16.269 4.125 15.5732 4.2955 14.9751 4.6365C14.3822 4.97404 13.8724 5.44012 13.4832 6.0005C13.0926 6.61831 12.8047 7.29533 12.6307 8.00525C12.4554 8.78867 12.3696 9.58947 12.375 10.3923V15.125C12.375 15.4897 12.5199 15.8394 12.7777 16.0973C13.0356 16.3551 13.3853 16.5 13.75 16.5H16.5ZM8.24999 16.5C8.61467 16.5 8.9644 16.3551 9.22227 16.0973C9.48013 15.8394 9.62499 15.4897 9.62499 15.125V11.7672C9.62499 11.4026 9.48013 11.0528 9.22227 10.795C8.9644 10.5371 8.61467 10.3923 8.24999 10.3923H6.34149C6.34149 9.90963 6.37037 9.42563 6.42674 8.943C6.51199 8.4315 6.65499 7.97638 6.85299 7.579C7.05237 7.18025 7.30812 6.86812 7.62162 6.63987C7.93374 6.38412 8.33112 6.25625 8.81512 6.25625V4.125C8.01899 4.125 7.32324 4.2955 6.72512 4.6365C6.1322 4.97404 5.62243 5.44012 5.23324 6.0005C4.84264 6.61831 4.55474 7.29533 4.38074 8.00525C4.20541 8.78867 4.11961 9.58947 4.12499 10.3923V15.125C4.12499 15.4897 4.26986 15.8394 4.52772 16.0973C4.78558 16.3551 5.13532 16.5 5.49999 16.5H8.24999Z" fill="black"/>
</svg>
